<?xml version="1.0" encoding="UTF-8" standalone="no"?>
<!-- Generator: Adobe Illustrator 17.0.1, SVG Export Plug-In . SVG Version: 6.00 Build 0)  -->

<svg
   xmlns:dc="http://purl.org/dc/elements/1.1/"
   xmlns:cc="http://creativecommons.org/ns#"
   xmlns:rdf="http://www.w3.org/1999/02/22-rdf-syntax-ns#"
   xmlns:svg="http://www.w3.org/2000/svg"
   xmlns="http://www.w3.org/2000/svg"
   xmlns:sodipodi="http://sodipodi.sourceforge.net/DTD/sodipodi-0.dtd"
   xmlns:inkscape="http://www.inkscape.org/namespaces/inkscape"
   version="1.1"
   x="0px"
   y="0px"
   width="86px"
   height="86px"
   viewBox="0 0 86 86"
   enable-background="new 0 0 86 86"
   xml:space="preserve"
   id="svg3895"
   inkscape:version="0.48.5 r10040"
   sodipodi:docname="kurzpark.svg"
   inkscape:export-filename="C:\Users\mfuchs\Documents\kurzpark.png"
   inkscape:export-xdpi="90"
   inkscape:export-ydpi="90"><metadata
     id="metadata3928"><rdf:RDF><cc:Work
         rdf:about=""><dc:format>image/svg+xml</dc:format><dc:type
           rdf:resource="http://purl.org/dc/dcmitype/StillImage" /><dc:title></dc:title></cc:Work></rdf:RDF></metadata><defs
     id="defs3926" /><sodipodi:namedview
     pagecolor="#ffffff"
     bordercolor="#666666"
     borderopacity="1"
     objecttolerance="10"
     gridtolerance="10"
     guidetolerance="10"
     inkscape:pageopacity="0"
     inkscape:pageshadow="2"
     inkscape:window-width="1333"
     inkscape:window-height="948"
     id="namedview3924"
     showgrid="false"
     showguides="true"
     inkscape:guide-bbox="true"
     inkscape:zoom="5.0639535"
     inkscape:cx="57.350881"
     inkscape:cy="32.934703"
     inkscape:window-x="433"
     inkscape:window-y="68"
     inkscape:window-maximized="0"
     inkscape:current-layer="Layer_1"
     inkscape:snap-bbox="true"
     inkscape:snap-center="true"
     inkscape:bbox-paths="true"
     inkscape:snap-nodes="false"
     inkscape:bbox-nodes="true"
     inkscape:snap-bbox-edge-midpoints="true"
     inkscape:snap-bbox-midpoints="true"
     inkscape:snap-global="false" /><g
     id="Layer_2"
     display="none" /><g
     id="Layer_1"><linearGradient
       id="SVGID_1_"
       gradientUnits="userSpaceOnUse"
       x1="85.1792"
       y1="0.8064"
       x2="12.7851"
       y2="73.2005"><stop
         offset="0"
         style="stop-color:#828282"
         id="stop3900" /><stop
         offset="1"
         style="stop-color:#DADADA"
         id="stop3902" /></linearGradient><path
       fill="url(#SVGID_1_)"
       d="M85.603,1.819c0-0.785-0.636-1.422-1.422-1.422H1.722C0.937,0.397,0.3,1.034,0.3,1.819v41.23   C0.3,66.605,19.396,85.7,42.951,85.7h41.23c0.785,0,1.422-0.696,1.422-1.481V1.819z"
       id="path3904" /><path
       opacity="0.7"
       fill="#FFFFFF"
       d="M19.597,42.493V0.3h-7.736v42.193c0,17.477,14.168,31.645,31.645,31.645H85.7v-7.735H43.507   C30.323,66.403,19.597,55.677,19.597,42.493z"
       id="path3906" /><path
       fill="#FFD222"
       d="M20.952,49.849H85.7v-7.772H19.634C19.671,44.795,20.132,47.408,20.952,49.849z"
       id="path3908"
       style="fill:#ffcd22;fill-opacity:1" /><rect
       x="19.634"
       y="17.972"
       width="66.066"
       height="7.405"
       id="rect3910"
       fill="#FFFFFF"
       opacity="0.7" /><polygon
       fill="#FFD222"
       points="72.413,0.397 64.296,0.397 48.239,65.652 56.357,65.652  "
       id="polygon3912"
       style="fill:#ffcd22;fill-opacity:1" /><path
       opacity="0.5"
       fill="#54D739"
       d="M54.301,42.077l4.196-16.517H19.634v16.18c0,0.113,0.007,0.224,0.009,0.337H54.301z"
       id="path3914"
       style="fill:#54ff39;fill-opacity:1" /><path
       opacity="0.5"
       fill="#54D739"
       d="M21.577,49.849c3.276,9.039,12.228,15.545,22.736,15.545h4.374l3.98-15.545H21.577z"
       id="path3916"
       style="fill:#54ff39;fill-opacity:1" /><g
       id="g3840"
       transform="translate(-43.246843,-11.058553)"><path
         inkscape:connector-curvature="0"
         id="path3027"
         d="m 106.14921,17.983415 c -7.179706,0 -13.000004,5.820298 -13.000004,13 0,3.589851 1.459963,6.834963 3.8125,9.1875 l 9.187504,9.1875 9.1875,-9.1875 c 2.35254,-2.352537 3.8125,-5.597649 3.8125,-9.1875 0,-7.179702 -5.8203,-13 -13,-13 z"
         style="fill:#ff0000;stroke:none" /><ellipse
         cx="57.974998"
         cy="19.83"
         rx="7.6859999"
         ry="7.6739998"
         id="ellipse3922-0"
         style="fill:#0000ff;fill-opacity:0.80448716;stroke:none"
         sodipodi:cx="57.974998"
         sodipodi:cy="19.83"
         sodipodi:rx="7.6859999"
         sodipodi:ry="7.6739998"
         transform="matrix(-0.88804827,-0.9522418,-0.95234597,0.88795115,176.51882,68.581564)"
         d="m 65.660998,19.83 c 0,4.238233 -3.441139,7.674 -7.686,7.674 -4.24486,0 -7.685999,-3.435767 -7.685999,-7.674 0,-4.238233 3.441139,-7.674 7.685999,-7.674 4.244861,0 7.686,3.435767 7.686,7.674 z" /><rect
         transform="matrix(0.70710678,-0.70710678,0.70710678,0.70710678,0,0)"
         y="86.07589"
         x="51.610363"
         height="21.862793"
         width="3"
         id="rect3002"
         style="fill:#ff0000;stroke:none" /></g></g></svg>